<?xml version="1.0" standalone="no"?><!DOCTYPE svg PUBLIC "-//W3C//DTD SVG 1.1//EN" "http://www.w3.org/Graphics/SVG/1.1/DTD/svg11.dtd"><svg class="icon" width="200px" height="200.00px" viewBox="0 0 1024 1024" version="1.1" xmlns="http://www.w3.org/2000/svg"><path fill="#ffffff" d="M585.1 291.4H201.5c-0.1 0-0.2-0.1-0.2-0.2v-47.3c0-0.1 0.1-0.2 0.2-0.2h383.6c0.1 0 0.2 0.1 0.2 0.2v47.3c0 0.1-0.1 0.2-0.2 0.2zM585.1 517.2H201.5c-0.1 0-0.2-0.1-0.2-0.2v-47.3c0-0.1 0.1-0.2 0.2-0.2h383.6c0.1 0 0.2 0.1 0.2 0.2V517c0 0.1-0.1 0.2-0.2 0.2zM585.1 743.1H201.5c-0.1 0-0.2-0.1-0.2-0.2v-47.3c0-0.1 0.1-0.2 0.2-0.2h383.6c0.1 0 0.2 0.1 0.2 0.2v47.3c0 0.1-0.1 0.2-0.2 0.2zM824.6 485.1H713.3c-0.1 0-0.2-0.1-0.2-0.2v-47.3c0-0.1 0.1-0.2 0.2-0.2h111.2c0.1 0 0.2 0.1 0.2 0.2v47.3c0.1 0.1 0 0.2-0.1 0.2zM824.6 646.7H713.3c-0.1 0-0.2-0.1-0.2-0.2v-47.3c0-0.1 0.1-0.2 0.2-0.2h111.2c0.1 0 0.2 0.1 0.2 0.2v47.3c0.1 0.1 0 0.2-0.1 0.2zM824.6 807.4H713.3c-0.1 0-0.2-0.1-0.2-0.2v-47.3c0-0.1 0.1-0.2 0.2-0.2h111.2c0.1 0 0.2 0.1 0.2 0.2v47.3c0.1 0 0 0.2-0.1 0.2z"  /><path fill="#ffffff" d="M592.6 956.2H180.9c-44.4 0-80.4-29.4-80.4-65.5V129.3c0-36.1 36.1-65.5 80.4-65.5h411.6c44.4 0 80.4 29.4 80.4 65.5v761.4c0.1 36.1-36 65.5-80.3 65.5zM180.9 103.8c-17.2 0-31.2 11.4-31.2 25.4v761.4c0 14 14 25.4 31.2 25.4h411.6c17.2 0 31.2-11.4 31.2-25.4V129.3c0-14-14-25.4-31.2-25.4H180.9z"  /><path fill="#ffffff" d="M843.5 346.9H625.8v45.8h217.7c17.2 0 31.2 13 31.2 29v448.4c0 16-14 29-31.2 29H625.8v45.8h217.7c44.4 0 80.4-33.5 80.4-74.8V421.7c0.1-41.2-36-74.8-80.4-74.8z"  /></svg>