<?xml version="1.0" standalone="no"?><!DOCTYPE svg PUBLIC "-//W3C//DTD SVG 1.1//EN" "http://www.w3.org/Graphics/SVG/1.1/DTD/svg11.dtd"><svg class="icon" width="200px" height="200.00px" viewBox="0 0 1024 1024" version="1.1" xmlns="http://www.w3.org/2000/svg"><path fill="#ffffff" d="M802.133333 797.866667zM537.6 908.8c0-17.066667-12.8-29.866667-34.133333-29.866667H106.666667c-17.066667 0-34.133333-12.8-34.133334-29.866666V93.866667c0-17.066667 12.8-29.866667 34.133334-29.866667h631.466666c17.066667 0 34.133333 12.8 34.133334 29.866667v379.733333c0 17.066667 12.8 29.866667 34.133333 29.866667 17.066667 0 34.133333-12.8 34.133333-29.866667V93.866667c0-51.2-42.666667-93.866667-98.133333-93.866667H106.666667C51.2 0 8.533333 42.666667 8.533333 93.866667v750.933333C8.533333 896 51.2 938.666667 106.666667 938.666667h401.066666c17.066667 0 29.866667-12.8 29.866667-29.866667"  /><path fill="#ffffff" d="M665.6 170.666667H162.133333c-21.333333 0-34.133333 17.066667-34.133333 34.133333s12.8 29.866667 34.133333 29.866667h503.466667c17.066667 0 34.133333-12.8 34.133333-29.866667-4.266667-17.066667-17.066667-34.133333-34.133333-34.133333zM665.6 328.533333H162.133333c-21.333333 0-34.133333 12.8-34.133333 29.866667 0 17.066667 12.8 29.866667 34.133333 29.866667h503.466667c17.066667 0 34.133333-12.8 34.133333-29.866667-4.266667-17.066667-17.066667-29.866667-34.133333-29.866667zM554.666667 486.4H162.133333c-17.066667 0-34.133333 12.8-34.133333 29.866667 0 17.066667 12.8 29.866667 34.133333 29.866666h396.8c17.066667 0 34.133333-12.8 34.133334-29.866666-4.266667-17.066667-17.066667-29.866667-38.4-29.866667zM482.133333 640H162.133333c-17.066667 0-34.133333 12.8-34.133333 29.866667 0 17.066667 12.8 29.866667 34.133333 29.866666h320c17.066667 0 34.133333-12.8 34.133334-29.866666-4.266667-12.8-17.066667-29.866667-34.133334-29.866667zM802.133333 593.066667c-76.8 0-145.066667 42.666667-183.466666 106.666666-38.4 68.266667-38.4 149.333333 0 217.6 38.4 68.266667 106.666667 106.666667 183.466666 106.666667 119.466667 0 213.333333-98.133333 213.333334-217.6s-93.866667-213.333333-213.333334-213.333333z m0 51.2c34.133333 0 64 8.533333 93.866667 29.866666l-234.666667 217.6c-12.8-25.6-21.333333-51.2-21.333333-81.066666 0-42.666667 17.066667-85.333333 46.933333-115.2 29.866667-34.133333 72.533333-51.2 115.2-51.2z m0 328.533333c-34.133333 0-68.266667-12.8-93.866666-29.866667l234.666666-217.6c12.8 25.6 21.333333 51.2 21.333334 81.066667 0 42.666667-17.066667 85.333333-46.933334 115.2-29.866667 34.133333-72.533333 51.2-115.2 51.2z"  /></svg>