<?xml version="1.0" standalone="no"?><!DOCTYPE svg PUBLIC "-//W3C//DTD SVG 1.1//EN" "http://www.w3.org/Graphics/SVG/1.1/DTD/svg11.dtd"><svg class="icon" width="200px" height="200.00px" viewBox="0 0 1024 1024" version="1.1" xmlns="http://www.w3.org/2000/svg"><path fill="#ffffff" d="M992.6172720545185 518.9148854044445c-0.617231397925926 6.734904130370369-1.2978009125925924 13.466081204148146-1.8405178785185183 20.207194263703702-5.894127009185184 73.22701732977778-27.404090785185186 141.56337546429629-64.23555458844444 205.092280850963-5.958706669037037 10.276844581925927-17.149600047407404 13.648642654814815-26.716069584592585 8.273636010666667-9.700596242962964-5.449522289777779-12.67374004148148-16.93102292385185-6.572212223999999-27.533248891259255 19.381321727999996-33.67700131081481 34.474311073185184-69.12621499733334 44.69278492444444-106.62583045688888 13.91689606637037-51.067533539555555 18.68584884148148-102.9485205428148 14.318034640592591-155.73610587022222-5.067011716740739-61.24129848888889-22.125952417185186-118.91581838222221-50.973148349629625-173.07820335407405-26.427945415111108-49.621944092444444-61.22763787377777-92.62199967288888-103.97185911466664-129.13056760414813-59.72492045274074-51.012888651851846-128.24756588088889-83.98075767466668-205.29098721659258-99.0203448888889-40.83043047348147-7.9706084693333334-82.04212876325926-9.986236112592593-123.53077369362961-6.297749883259259-92.16870172444445 8.194152978962961-174.1996529588148 41.565643662222215-245.41104264533328 100.42991744948147-73.07674570903703 60.405489967407405-122.20689309392591 136.7410205582222-147.15447493214816 228.33223118696296-13.740544758518517 50.44409199881481-18.009005169777772 101.79354077866665-13.658578640592593 153.9154587496296 5.7438553884444445 68.81697852681482 26.478863246222215 132.81036060444444 61.926835389629616 191.94537210311108 34.73014541274074 57.93780591881481 80.4884935111111 105.53791343881481 136.77579468799996 142.90215943585184 47.884505846518515 31.785565601185176 100.07597207703704 53.44083239822223 156.3545800248889 64.97201053392592 42.00900683851852 8.606469082074074 84.44523315199997 11.03192852859259 127.22919590874076 7.439069032296295 48.21237153185185-4.047400201481482 94.5370319834074-15.553740193185185 138.978951168-34.61464670814814 45.37832182518518-19.463287845925926 86.31431501748149-45.894959103999994 122.99302411377778-78.92740657303702 4.364088357925925-3.930659953777778 9.103234389333334-6.842949935407407 15.197310520888887-6.652936798814815 8.197878821925926 0.25459279644444444 14.124295661037037 4.102043875555555 17.45014328888889 11.618111639703702 3.2798971828148145 7.411746588444444 1.8020179057777777 15.523933449481483-4.303234541037037 21.317466339555555-5.952497739851852 5.648228655407408-12.203054421333333 11.00212299851852-18.540544606814812 16.221890635851853-51.731958139259255 42.6051259354074-109.74924587614814 73.41951476622222-174.11147669807406 92.10163776474073-36.97676925155555 10.733868373333335-74.75829873777776 16.890039864888887-113.25268756859259 18.545511992888887-1.8728077084444443 0.08072457481481482-3.7331951312592593 0.4619923911111111-5.599793910518518 0.7029233588148148-10.74380435911111 0-21.48760871822222 0-32.23141307733333 0-1.2294954097777775-0.22602880948148146-2.4490560474074075-0.5588618808888889-3.688486229333333-0.6606987567407407-12.893558708148149-1.0643204171851852-25.820648789333333-1.8007763626666666-38.67943458133333-3.185510779259259-37.343133696-4.0225620574814815-73.58468975881482-12.950686682074073-108.76192419081481-25.951049652148146-64.83788382814815-23.96150290962963-122.12368421925925-60.01677046518517-171.58169607585188-108.39555853274075-54.405800239407405-53.21852943170371-94.26381118577777-115.71043684503704-119.39643998814813-187.55271975822222-13.873429921185185-39.658063037629624-22.49107531851852-80.42267109451852-25.39218898488889-122.36958378666668-0.4880720782222222-7.050349530074073-1.1587068207407405-14.087038445037036-1.7448899318518518-21.129937502814816 0-10.74380435911111 0-21.48760871822222 0-32.23141307733333 0.23099619555555556-1.3723153445925922 0.5625877238518519-2.737180216888889 0.6780852148148148-4.119431547259259 1.0581114879999998-12.735835401481479 1.7597933037037035-25.5101707757037 3.168124321185185-38.206264661333336 5.059560030814814-45.615528163555545 17.03782839940741-89.44890796562962 35.025721268148146-131.6131550245926 26.558346277925928-62.253459531851846 64.54851811555555-116.59592165451852 113.80906514962962-163.02987188148148 50.20688687407407-47.32688672237036 107.86650339555557-82.40352582162964 173.02107538014815-105.12932317866665 39.671723652740745-13.837414248296295 80.42391385125926-22.49107531851852 122.37082532977777-25.39839791407407 7.064011358814815-0.489314834962963 14.11684518874074-1.161189906962963 21.17464640474074-1.7486157748148148 10.74380435911111 0 21.48760871822222 0 32.23141307733333 0 1.2294954097777775 0.22602880948148146 2.4490560474074075 0.5588618808888889 3.688486229333333 0.6606987567407407 12.893558708148149 1.0643204171851852 25.825616175407404 1.764760689777778 38.67943458133333 3.1892366222222224 45.615528163555545 5.05459264474074 89.45635965155553 17.03286101333333 131.6156381108148 35.02323696829629 62.39752100977777 26.62541023762963 116.84057846518516 64.73604695229629 163.34034989511113 114.17046220799998 47.28093506370371 50.264014847999995 82.24704405807407 108.00311440118516 104.95421341392593 173.1378156278519 13.775317674666665 39.51524310281481 22.33459476859259 80.1444829108148 25.22204660622222 121.93367108266668 0.4868305351111111 7.050349530074073 1.1587068207407405 14.087038445037036 1.7448899318518518 21.131179045925926C992.6172720545185 495.53211513362953 992.6172720545185 507.22349966222214 992.6172720545185 518.9148854044445z"  /><path fill="#ffffff" d="M543.2540261641481 423.9518767028148c0 49.76228094103704-0.017386458074074074 99.52456188207408 0.009934772148148148 149.28560127999998 0.007451685925925925 14.123054117925925-2.178318336 27.756794614518515-9.700596242962964 39.95612197925925-6.301475726222223 10.21847385125926-14.421114273185182 18.221373364148146-27.65247343881481 17.569367836444442-11.834205677037037-0.5824584817777778-19.132937860740743-8.178008063999998-24.91777752177778-17.424063601777775-6.24931513837037-9.989961955555554-8.803933904592592-21.189548562962962-9.530453864296298-32.84491863229629-0.16641653570370368-2.677567943111111-0.19622206577777776-5.367554958222222-0.19622206577777776-8.05257458725926-0.009934772148148148-99.05015041896294 0.006210142814814815-198.1003008379259-0.022355057777777777-297.15045125688886-0.0037258429629629625-14.268358352592593 1.8069865054814815-28.206366720000002 9.689418714074074-40.38706729718518 3.4301688035555555-5.300492212148147 8.00662414222222-10.326520869925927 13.135732432592592-13.96533081125926 10.831980619851851-7.684968599703703 25.127660202666668-4.442328632888889 34.57118056296296 6.850401621333333 10.899043365925927 13.033895556740742 14.41366258725926 28.495733646222224 14.582562209185182 44.97966755081482 0.13536824888888888 13.268616381629629 0.03104828681481481 26.539717063111105 0.03104828681481481 39.80957620148148C543.2540261641481 349.70400388740734 543.2540261641481 386.82856167348143 543.2540261641481 423.9518767028148z"  /><path fill="#ffffff" d="M507.0782925179259 692.4265171626668c24.765021601185182-0.1552390068148148 45.26530742044444 20.07679340088889 45.56585066192592 44.97221586488889 0.2980589416296296 24.671877954370373-20.727556171851855 45.82292775822222-45.42799811318518 45.697494281481475-24.755085615407406-0.12543347674074073-45.195760374518514-20.561139636148145-45.32367815111111-45.31250062222222C461.76454913896293 713.1205419614816 482.225094656 692.5817561694817 507.0782925179259 692.4265171626668z"  /></svg>