<?xml version="1.0" standalone="no"?><!DOCTYPE svg PUBLIC "-//W3C//DTD SVG 1.1//EN" "http://www.w3.org/Graphics/SVG/1.1/DTD/svg11.dtd"><svg class="icon" width="200px" height="200.00px" viewBox="0 0 1024 1024" version="1.1" xmlns="http://www.w3.org/2000/svg"><path fill="#ffffff" d="M294.037 468.764c-75.96 0-137.544-61.578-137.544-137.539 0-75.96 61.584-137.538 137.544-137.538s137.539 61.578 137.539 137.538c0 75.961-61.579 137.539-137.539 137.539zM610.03 921.09c-14.094 0-25.626-11.533-25.626-25.631V126.611c0-14.098 11.532-25.631 25.626-25.631 14.098 0 25.63 11.533 25.63 25.631v52.188l320.822 133.898 0.029-0.014 66.54 27.772L635.66 502.132v393.327c0 14.098-11.537 25.631-25.63 25.631z m279.91-580.625L635.66 234.342v212.25l254.28-106.127zM55.567 894.445v-0.225c0-163.511 107.415-296.058 240.271-296.058 60.265 0 116.171 27.284 158.159 72.354 15.474 16.616 43.251 5.825 43.251-16.879 0-11.015-4.284-21.654-12.108-29.405-51.384-50.92-117.104-81.576-189.243-81.576C132.381 542.656-0.001 700.049-0.001 894.22c0 0.074 0.059 0.995 0.059 1.063l0.01 0.391v0.171l0.005 0.029c0.438 14.927 12.678 26.894 27.713 26.894 14.991 0 27.201-11.893 27.713-26.761 0.044-0.515 0.068-1.032 0.068-1.562z m238.47-759.708c-108.517 0-196.488 87.971-196.488 196.488 0 108.513 87.971 196.483 196.488 196.483 108.513 0 196.483-87.97 196.483-196.483 0-108.517-87.969-196.483-196.483-196.488z m0 0" /></svg>