<?xml version="1.0" standalone="no"?><!DOCTYPE svg PUBLIC "-//W3C//DTD SVG 1.1//EN" "http://www.w3.org/Graphics/SVG/1.1/DTD/svg11.dtd"><svg class="icon" width="200px" height="200.00px" viewBox="0 0 1024 1024" version="1.1" xmlns="http://www.w3.org/2000/svg"><path d="M342.109091 46.545455m93.090909 0l398.429091 0q93.090909 0 93.090909 93.090909l0 488.401454q0 93.090909-93.090909 93.090909l-398.429091 0q-93.090909 0-93.090909-93.090909l0-488.401454q0-93.090909 93.090909-93.090909Z" fill="#333333" /><path d="M438.458182 162.164364m23.272727 0l358.213818 0q23.272727 0 23.272728 23.272727l0 0q0 23.272727-23.272728 23.272727l-358.213818 0q-23.272727 0-23.272727-23.272727l0 0q0-23.272727 23.272727-23.272727Z" fill="#FFFFFF" /><path d="M438.458182 277.829818m23.272727 0l358.213818 0q23.272727 0 23.272728 23.272727l0 0q0 23.272727-23.272728 23.272728l-358.213818 0q-23.272727 0-23.272727-23.272728l0 0q0-23.272727 23.272727-23.272727Z" fill="#FFFFFF" /><path d="M438.458182 393.448727m23.272727 0l358.213818 0q23.272727 0 23.272728 23.272728l0 0q0 23.272727-23.272728 23.272727l-358.213818 0q-23.272727 0-23.272727-23.272727l0 0q0-23.272727 23.272727-23.272728Z" fill="#FFFFFF" /><path d="M46.545455 258.56m93.090909 0l398.429091 0q93.090909 0 93.090909 93.090909l0 488.401455q0 93.090909-93.090909 93.090909l-398.429091 0q-93.090909 0-93.090909-93.090909l0-488.401455q0-93.090909 93.090909-93.090909Z" fill="#E43C3C" /><path d="M136.471273 378.461091m23.272727 0l358.213818 0q23.272727 0 23.272727 23.272727l0 0q0 23.272727-23.272727 23.272727l-358.213818 0q-23.272727 0-23.272727-23.272727l0 0q0-23.272727 23.272727-23.272727Z" fill="#FFFFFF" /><path d="M136.471273 494.126545m23.272727 0l358.213818 0q23.272727 0 23.272727 23.272728l0 0q0 23.272727-23.272727 23.272727l-358.213818 0q-23.272727 0-23.272727-23.272727l0 0q0-23.272727 23.272727-23.272728Z" fill="#FFFFFF" /><path d="M136.471273 609.745455m23.272727 0l358.213818 0q23.272727 0 23.272727 23.272727l0 0q0 23.272727-23.272727 23.272727l-358.213818 0q-23.272727 0-23.272727-23.272727l0 0q0-23.272727 23.272727-23.272727Z" fill="#FFFFFF" /></svg>