<?xml version="1.0" standalone="no"?><!DOCTYPE svg PUBLIC "-//W3C//DTD SVG 1.1//EN" "http://www.w3.org/Graphics/SVG/1.1/DTD/svg11.dtd"><svg class="icon" width="200px" height="200.00px" viewBox="0 0 1024 1024" version="1.1" xmlns="http://www.w3.org/2000/svg"><path fill="#ffffff" d="M765.35 430.15c-1.73 1.32-3.88 2.07-8.26 1.82l-16.27-8.09a21.71 21.71 0 0 0-3.88-1.41l-3.22-1.07a39.18 39.18 0 0 0-13.13-2.73c-13.38 0-23.46 10.49-23.46 24.45v297.57a58.06 58.06 0 0 1-58.06 58H384.94a58.07 58.07 0 0 1-58.06-58V443.2a19.8 19.8 0 0 0-0.33-3.88C324.07 426.6 313.83 418 301.11 418c-9.91 0-17.84 5.12-19.08 6.44L261.8 435.6a16 16 0 0 1-5-0.9l-74.25-63.85 55.92-87.71C263 248.45 294 225.33 366.28 225.33h53.35l7.18 18.42a19.3 19.3 0 0 0 3.64 5.94l58 66.41c11.89 13.62 35.26 13.71 47.24 0l58-66.32a19.27 19.27 0 0 0 2.72-4.05l10.49-20.32h50.88c78.21 0 101.42 14.21 123.14 45l60.46 99.85z m110.92-80.69l-61.69-101.25c-33.29-47.33-72.85-63.27-156.84-63.27h-63.18a20.15 20.15 0 0 0-17.93 11L561.6 225 512 281.74l-48.9-55.92-10.9-28a20.24 20.24 0 0 0-18.83-12.89h-67.18c-75.73 0-123.8 22.47-161.3 75.74l-56.57 88.37c-11.32 17.67-6.86 41.13 8.75 52.28l74.5 64.83a51.43 51.43 0 0 0 43.2 8 19.3 19.3 0 0 0 4.87-2l6.85-4v272.54a98.46 98.46 0 0 0 98.37 98.37H639a98.45 98.45 0 0 0 98.36-98.37V467.15l4.46 2.23a21.53 21.53 0 0 0 3.89 1.41 50.52 50.52 0 0 0 13.13 1.73 51.78 51.78 0 0 0 30.8-10.24l75.91-60a39.88 39.88 0 0 0 10.72-52.82z" /></svg>