<?xml version="1.0" standalone="no"?><!DOCTYPE svg PUBLIC "-//W3C//DTD SVG 1.1//EN" "http://www.w3.org/Graphics/SVG/1.1/DTD/svg11.dtd"><svg class="icon" width="200px" height="200.00px" viewBox="0 0 1024 1024" version="1.1" xmlns="http://www.w3.org/2000/svg"><path fill="#ffffff" d="M899.2 925.6c-12.5-163.9-118-301.2-270.1-352.5 86-46.4 141.1-139.3 141.2-239.2C770.2 186.8 655 66.9 512 63.4c-143 3.5-258.2 123.3-258.3 270.5 0.1 99.9 55.2 192.9 141.2 239.2-152.1 51.3-257.6 188.6-270.1 352.5-1.1 3-1.8 6.2-1.7 9.4 0 13.6 10.3 24.4 23.3 25.5h4.3c11.7-1.1 21.2-10.1 22.8-21.9h1.1l0.2-3.4c11-183.1 158.6-326.8 337.1-330.2C690.4 608.3 838 752.1 849 935.2l0.2 3.4h1.1c1.6 11.8 11.1 20.8 22.8 21.9h4.3c13-1.1 23.3-12 23.3-25.5 0.3-3.2-0.3-6.4-1.5-9.4zM304.3 334c0.1-118.5 92.7-215.1 207.7-218.5 115 3.5 207.6 100 207.7 218.6 0 118.6-92.7 215.2-207.7 218.6-115-3.5-207.7-100.1-207.7-218.7z" /></svg>